<svg width="595" height="387" viewBox="0 0 595 387" fill="none" xmlns="http://www.w3.org/2000/svg">
<path fill-rule="evenodd" clip-rule="evenodd" d="M2.61035 -13.4744C0.6632 -14.5179 -0.0693485 -16.9423 0.974153 -18.8895C1.05602 -19.0422 1.13844 -19.1944 1.22139 -19.346C2.28182 -21.284 4.71252 -21.9954 6.6505 -20.9349C8.58849 -19.8745 9.29988 -17.4438 8.23945 -15.5058C8.16766 -15.3746 8.09631 -15.2429 8.02541 -15.1106C6.98191 -13.1635 4.5575 -12.4309 2.61035 -13.4744ZM11.0558 -26.8244C9.50628 -28.399 9.52663 -30.9316 11.1012 -32.4811C11.348 -32.724 11.5967 -32.964 11.8471 -33.2012C13.451 -34.7204 15.9827 -34.6517 17.5019 -33.0478C19.0211 -31.4439 18.9524 -28.9122 17.3485 -27.393C17.135 -27.1908 16.9229 -26.9861 16.7125 -26.779C15.1379 -25.2295 12.6053 -25.2498 11.0558 -26.8244ZM23.551 -37.231C22.5853 -39.2179 23.4131 -41.6114 25.4 -42.5772C25.7096 -42.7277 26.0204 -42.8751 26.3323 -43.0195C28.337 -43.9475 30.7145 -43.0745 31.6425 -41.0697C32.5705 -39.065 31.6976 -36.6875 29.6928 -35.7595C29.4266 -35.6363 29.1614 -35.5105 28.8972 -35.3821C26.9103 -34.4163 24.5168 -35.2442 23.551 -37.231ZM38.7071 -43.1244C38.407 -45.313 39.9379 -47.3306 42.1266 -47.6307C42.467 -47.6773 42.8078 -47.7209 43.1489 -47.7613C45.3427 -48.0215 47.332 -46.4539 47.5921 -44.2602C47.8522 -42.0664 46.2847 -40.0771 44.0909 -39.817C43.7981 -39.7823 43.5056 -39.7449 43.2134 -39.7048C41.0247 -39.4047 39.0072 -40.9357 38.7071 -43.1244ZM54.9442 -44.0591C55.3238 -46.2354 57.3957 -47.6919 59.572 -47.3123C59.9104 -47.2533 60.2483 -47.1912 60.5857 -47.126C62.7547 -46.7067 64.1731 -44.6085 63.7539 -42.4395C63.3346 -40.2705 61.2364 -38.8521 59.0674 -39.2713C58.7779 -39.3273 58.4878 -39.3806 58.1974 -39.4313C56.0211 -39.8109 54.5646 -41.8828 54.9442 -44.0591ZM70.6956 -40.002C71.7318 -41.953 74.1534 -42.6947 76.1045 -41.6586C76.408 -41.4974 76.7102 -41.3332 77.0112 -41.166C78.9423 -40.0932 79.6381 -37.658 78.5652 -35.7268C77.4924 -33.7957 75.0572 -33.0999 73.126 -34.1728C72.8693 -34.3154 72.6113 -34.4555 72.3522 -34.5931C70.4012 -35.6293 69.6595 -38.0509 70.6956 -40.002ZM84.3767 -31.2193C85.9813 -32.7378 88.513 -32.668 90.0314 -31.0635C90.2686 -30.813 90.5037 -30.5597 90.7369 -30.3037C92.2245 -28.6705 92.1064 -26.1406 90.4732 -24.653C88.8399 -23.1654 86.31 -23.2835 84.8225 -24.9167C84.6236 -25.135 84.4231 -25.351 84.2209 -25.5646C82.7024 -27.1691 82.7722 -29.7008 84.3767 -31.2193ZM94.55 -18.5316C96.5431 -19.4846 98.9313 -18.6414 99.8842 -16.6484C99.9588 -16.4925 100.033 -16.336 100.106 -16.179L100.316 -15.7296C101.252 -13.7284 100.388 -11.3476 98.3866 -10.4121C96.3853 -9.47649 94.0046 -10.3404 93.069 -12.3417L92.8589 -12.7911C92.7954 -12.9271 92.7313 -13.0625 92.6668 -13.1974C91.7139 -15.1905 92.557 -17.5787 94.55 -18.5316ZM101.721 -3.27857C103.723 -4.21413 106.103 -3.3502 107.039 -1.34894L107.459 -0.45014C108.395 1.55112 107.531 3.93188 105.529 4.86742C103.528 5.80298 101.147 4.93904 100.212 2.93778L99.7917 2.03899C98.8561 0.0377278 99.7201 -2.34303 101.721 -3.27857ZM108.864 12.0009C110.865 11.0653 113.246 11.9293 114.182 13.9305L114.602 14.8293C115.537 16.8306 114.673 19.2114 112.672 20.1469C110.671 21.0824 108.29 20.2185 107.355 18.2173L106.935 17.3185C105.999 15.3172 106.863 12.9364 108.864 12.0009ZM116.007 27.2804C118.008 26.3448 120.389 27.2088 121.325 29.21L121.745 30.1088C122.68 32.1101 121.816 34.4908 119.815 35.4264C117.814 36.3619 115.433 35.498 114.498 33.4967L114.077 32.5979C113.142 30.5967 114.006 28.2159 116.007 27.2804ZM123.15 42.5598C125.151 41.6243 127.532 42.4882 128.467 44.4895L128.888 45.3883C129.823 47.3895 128.959 49.7703 126.958 50.7058C124.957 51.6414 122.576 50.7775 121.64 48.7762L121.22 47.8774C120.285 45.8761 121.149 43.4954 123.15 42.5598ZM130.293 57.8393C132.294 56.9038 134.675 57.7677 135.61 59.769L136.03 60.6677C136.966 62.669 136.102 65.0498 134.101 65.9853C132.099 66.9208 129.719 66.0569 128.783 64.0557L128.363 63.1569C127.427 61.1556 128.291 58.7748 130.293 57.8393ZM137.435 73.1188C139.437 72.1832 141.817 73.0472 142.753 75.0484L143.173 75.9472C144.109 77.9485 143.245 80.3292 141.244 81.2648C139.242 82.2003 136.862 81.3364 135.926 79.3351L135.506 78.4363C134.57 76.4351 135.434 74.0543 137.435 73.1188ZM144.578 88.3982C146.58 87.4627 148.96 88.3266 149.896 90.3279L150.316 91.2267C151.252 93.228 150.388 95.6087 148.386 96.5442C146.385 97.4798 144.004 96.6159 143.069 94.6146L142.649 93.7158C141.713 91.7145 142.577 89.3338 144.578 88.3982ZM151.721 103.678C153.722 102.742 156.103 103.606 157.039 105.607L157.459 106.506C158.394 108.507 157.53 110.888 155.529 111.824C153.528 112.759 151.147 111.895 150.212 109.894L149.791 108.995C148.856 106.994 149.72 104.613 151.721 103.678ZM158.864 118.957C160.865 118.022 163.246 118.886 164.182 120.887L164.602 121.786C165.537 123.787 164.673 126.168 162.672 127.103C160.671 128.039 158.29 127.175 157.354 125.174L156.934 124.275C155.999 122.273 156.863 119.893 158.864 118.957ZM166.007 134.237C168.008 133.301 170.389 134.165 171.324 136.166L171.745 137.065C172.68 139.066 171.816 141.447 169.815 142.383C167.814 143.318 165.433 142.454 164.497 140.453L164.077 139.554C163.142 137.553 164.006 135.172 166.007 134.237ZM173.15 149.516C175.151 148.581 177.532 149.445 178.467 151.446L178.887 152.345C179.823 154.346 178.959 156.727 176.958 157.662C174.956 158.598 172.576 157.734 171.64 155.733L171.22 154.834C170.284 152.832 171.148 150.452 173.15 149.516ZM180.292 164.796C182.294 163.86 184.674 164.724 185.61 166.725L186.03 167.624C186.966 169.625 186.102 172.006 184.101 172.942C182.099 173.877 179.719 173.013 178.783 171.012L178.363 170.113C177.427 168.112 178.291 165.731 180.292 164.796ZM187.435 180.075C189.437 179.14 191.817 180.003 192.753 182.005L193.173 182.904C194.109 184.905 193.245 187.286 191.243 188.221C189.242 189.157 186.861 188.293 185.926 186.291L185.506 185.393C184.57 183.391 185.434 181.011 187.435 180.075ZM194.578 195.355C196.579 194.419 198.96 195.283 199.896 197.284L200.316 198.183C201.251 200.184 200.387 202.565 198.386 203.501C196.385 204.436 194.004 203.572 193.069 201.571L192.648 200.672C191.713 198.671 192.577 196.29 194.578 195.355ZM201.721 210.634C203.722 209.698 206.103 210.562 207.038 212.564L207.459 213.462C208.394 215.464 207.53 217.845 205.529 218.78C203.528 219.716 201.147 218.852 200.211 216.85L199.791 215.952C198.856 213.95 199.72 211.57 201.721 210.634ZM208.864 225.914C210.865 224.978 213.246 225.842 214.181 227.843L214.601 228.742C215.537 230.743 214.673 233.124 212.672 234.06C210.671 234.995 208.29 234.131 207.354 232.13L206.934 231.231C205.999 229.23 206.863 226.849 208.864 225.914ZM216.007 241.193C218.008 240.257 220.389 241.121 221.324 243.123L221.744 244.021C222.68 246.023 221.816 248.403 219.815 249.339C217.813 250.275 215.433 249.411 214.497 247.409L214.077 246.511C213.141 244.509 214.005 242.129 216.007 241.193ZM223.149 256.472C225.151 255.537 227.531 256.401 228.467 258.402L228.887 259.301C229.823 261.302 228.959 263.683 226.957 264.618C224.956 265.554 222.575 264.69 221.64 262.689L221.22 261.79C220.284 259.789 221.148 257.408 223.149 256.472ZM230.292 271.752C232.293 270.816 234.674 271.68 235.61 273.682L236.03 274.58C236.966 276.582 236.102 278.962 234.1 279.898C232.099 280.833 229.718 279.97 228.783 277.968L228.363 277.07C227.427 275.068 228.291 272.687 230.292 271.752ZM237.435 287.031C239.436 286.096 241.817 286.96 242.753 288.961L243.173 289.86C244.108 291.861 243.244 294.242 241.243 295.177C239.242 296.113 236.861 295.249 235.926 293.248L235.505 292.349C234.57 290.348 235.434 287.967 237.435 287.031ZM244.578 302.311C246.579 301.375 248.96 302.239 249.895 304.241L250.316 305.139C251.251 307.141 250.387 309.521 248.386 310.457C246.385 311.392 244.004 310.529 243.068 308.527L242.648 307.628C241.713 305.627 242.577 303.246 244.578 302.311ZM251.721 317.59C253.722 316.655 256.103 317.519 257.038 319.52L257.458 320.419C258.394 322.42 257.53 324.801 255.529 325.736C253.528 326.672 251.147 325.808 250.211 323.807L249.791 322.908C248.856 320.907 249.719 318.526 251.721 317.59ZM258.864 332.87C260.865 331.934 263.246 332.798 264.181 334.799L264.601 335.698C265.537 337.7 264.673 340.08 262.672 341.016C260.67 341.951 258.29 341.087 257.354 339.086L256.934 338.187C255.998 336.186 256.862 333.805 258.864 332.87ZM266.006 348.149C268.008 347.214 270.388 348.078 271.324 350.079L271.744 350.978C272.68 352.979 271.816 355.36 269.814 356.295C267.813 357.231 265.432 356.367 264.497 354.366L264.077 353.467C263.141 351.466 264.005 349.085 266.006 348.149ZM273.149 363.429C275.15 362.493 277.531 363.357 278.467 365.358L278.887 366.257C279.823 368.259 278.959 370.639 276.957 371.575C274.956 372.51 272.575 371.646 271.64 369.645L271.22 368.746C270.284 366.745 271.148 364.364 273.149 363.429ZM283.266 378.542C282.324 378.224 281.264 378.254 280.292 378.708C278.291 379.644 277.427 382.025 278.362 384.026L278.572 384.475C278.616 384.567 278.661 384.658 278.71 384.748C279.548 386.29 281.252 387.06 282.891 386.784C284.496 387.215 286.266 386.61 287.246 385.155C287.303 385.071 287.358 384.984 287.409 384.897L287.668 384.457C288.79 382.554 288.157 380.102 286.254 378.98C285.316 378.428 284.245 378.301 283.266 378.542ZM290.478 371.814C288.575 370.692 287.942 368.24 289.063 366.336L289.581 365.458C290.703 363.555 293.155 362.921 295.058 364.043C296.962 365.165 297.595 367.617 296.473 369.52L295.955 370.399C294.833 372.302 292.381 372.935 290.478 371.814ZM299.283 356.876C297.38 355.755 296.746 353.302 297.868 351.399L298.386 350.521C299.508 348.617 301.96 347.984 303.863 349.106C305.766 350.228 306.4 352.68 305.278 354.583L304.76 355.462C303.638 357.365 301.186 357.998 299.283 356.876ZM308.088 341.939C306.185 340.817 305.551 338.365 306.673 336.462L307.191 335.583C308.313 333.68 310.765 333.047 312.668 334.169C314.571 335.291 315.205 337.743 314.083 339.646L313.565 340.524C312.443 342.428 309.991 343.061 308.088 341.939ZM316.893 327.002C314.989 325.88 314.356 323.428 315.478 321.525L315.996 320.646C317.118 318.743 319.57 318.11 321.473 319.231C323.376 320.353 324.009 322.805 322.888 324.709L322.37 325.587C321.248 327.49 318.796 328.124 316.893 327.002ZM325.697 312.065C323.794 310.943 323.161 308.491 324.283 306.588L324.801 305.709C325.922 303.806 328.375 303.172 330.278 304.294C332.181 305.416 332.814 307.868 331.692 309.771L331.175 310.65C330.053 312.553 327.601 313.187 325.697 312.065ZM334.502 297.128C332.599 296.006 331.966 293.554 333.088 291.65L333.606 290.772C334.727 288.869 337.18 288.235 339.083 289.357C340.986 290.479 341.619 292.931 340.497 294.834L339.979 295.713C338.858 297.616 336.405 298.249 334.502 297.128ZM343.307 282.19C341.404 281.069 340.771 278.616 341.892 276.713L342.41 275.835C343.532 273.931 345.984 273.298 347.887 274.42C349.791 275.542 350.424 277.994 349.302 279.897L348.784 280.776C347.662 282.679 345.21 283.312 343.307 282.19ZM352.112 267.253C350.209 266.131 349.575 263.679 350.697 261.776L351.215 260.897C352.337 258.994 354.789 258.361 356.692 259.483C358.595 260.605 359.229 263.057 358.107 264.96L357.589 265.839C356.467 267.742 354.015 268.375 352.112 267.253ZM360.917 252.316C359.014 251.194 358.38 248.742 359.502 246.839L360.02 245.96C361.142 244.057 363.594 243.424 365.497 244.546C367.4 245.667 368.034 248.12 366.912 250.023L366.394 250.901C365.272 252.804 362.82 253.438 360.917 252.316ZM369.722 237.379C367.819 236.257 367.185 233.805 368.307 231.902L368.825 231.023C369.947 229.12 372.399 228.487 374.302 229.608C376.205 230.73 376.838 233.182 375.717 235.085L375.199 235.964C374.077 237.867 371.625 238.501 369.722 237.379ZM378.526 222.442C376.623 221.32 375.99 218.868 377.112 216.965L377.63 216.086C378.752 214.183 381.204 213.549 383.107 214.671C385.01 215.793 385.643 218.245 384.521 220.148L384.004 221.027C382.882 222.93 380.43 223.563 378.526 222.442ZM387.331 207.504C385.428 206.383 384.795 203.93 385.917 202.027L386.435 201.149C387.556 199.246 390.009 198.612 391.912 199.734C393.815 200.856 394.448 203.308 393.326 205.211L392.808 206.09C391.687 207.993 389.234 208.626 387.331 207.504ZM396.136 192.567C394.233 191.445 393.6 188.993 394.721 187.09L395.239 186.211C396.361 184.308 398.813 183.675 400.716 184.797C402.62 185.919 403.253 188.371 402.131 190.274L401.613 191.153C400.491 193.056 398.039 193.689 396.136 192.567ZM404.941 177.63C403.038 176.508 402.404 174.056 403.526 172.153L404.044 171.274C405.166 169.371 407.618 168.738 409.521 169.86C411.424 170.981 412.058 173.434 410.936 175.337L410.418 176.215C409.296 178.118 406.844 178.752 404.941 177.63ZM413.746 162.693C411.843 161.571 411.209 159.119 412.331 157.216L412.849 156.337C413.971 154.434 416.423 153.801 418.326 154.922C420.229 156.044 420.863 158.496 419.741 160.4L419.223 161.278C418.101 163.181 415.649 163.815 413.746 162.693ZM422.551 147.756C420.648 146.634 420.014 144.182 421.136 142.279L421.654 141.4C422.776 139.497 425.228 138.863 427.131 139.985C429.034 141.107 429.668 143.559 428.546 145.462L428.028 146.341C426.906 148.244 424.454 148.878 422.551 147.756ZM431.355 132.819C429.452 131.697 428.819 129.245 429.941 127.341L430.459 126.463C431.581 124.56 434.033 123.926 435.936 125.048C437.839 126.17 438.472 128.622 437.351 130.525L436.833 131.404C435.711 133.307 433.259 133.94 431.355 132.819ZM440.16 117.881C438.257 116.76 437.624 114.307 438.746 112.404L439.264 111.526C440.385 109.622 442.838 108.989 444.741 110.111C446.644 111.233 447.277 113.685 446.155 115.588L445.637 116.467C444.516 118.37 442.063 119.003 440.16 117.881ZM448.965 102.944C447.062 101.822 446.429 99.3702 447.55 97.467L447.809 97.0277C447.904 96.8669 448 96.7068 448.096 96.5474C449.236 94.6554 451.694 94.046 453.586 95.1863C455.478 96.3267 456.088 98.7849 454.947 100.677C454.903 100.751 454.858 100.826 454.813 100.901C454.776 100.964 454.738 101.027 454.701 101.09L454.442 101.529C453.32 103.433 450.868 104.066 448.965 102.944ZM459.079 88.6852C457.653 86.9978 457.865 84.4741 459.553 83.0483C459.837 82.8077 460.124 82.5706 460.413 82.3368C462.13 80.947 464.649 81.2123 466.039 82.9295C467.428 84.6466 467.163 87.1654 465.446 88.5552C465.307 88.6679 465.168 88.7815 465.03 88.8961C464.925 88.9832 464.82 89.0708 464.716 89.159C463.028 90.5848 460.505 90.3727 459.079 88.6852ZM473.463 78.7621C472.716 76.6829 473.797 74.3922 475.876 73.6457C476.046 73.5846 476.217 73.5243 476.387 73.465C476.567 73.4025 476.747 73.341 476.927 73.2805C479.021 72.5772 481.289 73.7046 481.992 75.7988C482.696 77.893 481.568 80.1608 479.474 80.8642C479.309 80.9197 479.144 80.9761 478.98 81.0335C478.846 81.0801 478.713 81.1273 478.579 81.1751C476.5 81.9216 474.209 80.8413 473.463 78.7621ZM490.396 74.4428C490.4 72.2336 492.193 70.4456 494.403 70.449C494.773 70.4496 495.143 70.4539 495.513 70.462C497.722 70.51 499.473 72.3393 499.425 74.5479C499.377 76.7566 497.548 78.5081 495.339 78.4601C495.023 78.4532 494.707 78.4495 494.39 78.449C492.181 78.4456 490.393 76.6519 490.396 74.4428ZM507.795 76.0993C508.547 74.0221 510.841 72.9478 512.918 73.6998C513.267 73.8259 513.614 73.9558 513.96 74.0893C516.022 74.8841 517.048 77.1993 516.254 79.2605C515.459 81.3218 513.144 82.3485 511.082 81.5537C510.788 81.44 510.492 81.3295 510.195 81.222C508.118 80.4701 507.043 78.1765 507.795 76.0993ZM523.579 83.5997C525.008 81.9154 527.533 81.7088 529.217 83.1383C529.5 83.3786 529.781 83.6224 530.06 83.8695C531.714 85.3342 531.867 87.8623 530.403 89.516C528.938 91.1698 526.41 91.323 524.756 89.8583C524.519 89.6485 524.281 89.4417 524.04 89.2377C522.356 87.8082 522.149 85.284 523.579 83.5997ZM535.742 96.1432C537.66 95.0473 540.104 95.7137 541.2 97.6318C541.292 97.7934 541.384 97.9557 541.475 98.1187L541.735 98.584C542.812 100.513 542.121 102.95 540.193 104.027C538.264 105.104 535.827 104.414 534.75 102.485L534.49 102.019C534.412 101.879 534.333 101.74 534.254 101.601C533.158 99.6826 533.824 97.2392 535.742 96.1432ZM544.608 111.933C546.537 110.856 548.974 111.546 550.051 113.475L550.571 114.406C551.648 116.335 550.958 118.771 549.029 119.849C547.1 120.926 544.664 120.235 543.586 118.307L543.067 117.376C541.989 115.447 542.68 113.01 544.608 111.933ZM553.445 127.755C555.374 126.678 557.81 127.368 558.887 129.297L559.407 130.228C560.484 132.156 559.794 134.593 557.865 135.67C555.937 136.748 553.5 136.057 552.423 134.128L551.903 133.198C550.826 131.269 551.516 128.832 553.445 127.755ZM562.281 143.577C564.21 142.5 566.647 143.19 567.724 145.119L568.244 146.05C569.321 147.978 568.63 150.415 566.702 151.492C564.773 152.569 562.336 151.879 561.259 149.95L560.739 149.02C559.662 147.091 560.352 144.654 562.281 143.577ZM571.117 159.399C573.046 158.322 575.483 159.012 576.56 160.941L577.08 161.871C578.157 163.8 577.467 166.237 575.538 167.314C573.609 168.391 571.173 167.701 570.095 165.772L569.576 164.841C568.498 162.913 569.189 160.476 571.117 159.399ZM579.954 175.221C581.883 174.143 584.319 174.834 585.396 176.762L585.916 177.693C586.993 179.622 586.303 182.059 584.374 183.136C582.446 184.213 580.009 183.523 578.932 181.594L578.412 180.663C577.335 178.735 578.025 176.298 579.954 175.221ZM588.79 191.042C590.719 189.965 593.156 190.656 594.233 192.584L594.493 193.05C595.57 194.978 594.88 197.415 592.951 198.492C591.022 199.57 588.585 198.879 587.508 196.95L587.248 196.485C586.171 194.556 586.861 192.12 588.79 191.042Z" fill="#25CEC9"/>
</svg>
